<?xml version="1.0" encoding="UTF-8"?>
<svg width="18px" height="52px" viewBox="0 0 18 52" version="1.1" xmlns="http://www.w3.org/2000/svg" xmlns:xlink="http://www.w3.org/1999/xlink">
    <!-- Generator: Sketch 52.4 (67378) - http://www.bohemiancoding.com/sketch -->
    <title>stem-3-diamond</title>
    <desc>Created with Sketch.</desc>
    <g id="Page-1" stroke="none" stroke-width="1" fill="none" fill-rule="evenodd">
        <g id="stem-3-diamond" fill="#333333" fill-rule="nonzero">
            <path d="M13.5450353,27.7315266 L10.1164366,19.580532 C9.97057834,19.2337751 9.56114652,19 9.1,19 C8.63885348,19 8.22942166,19.2338883 8.08356336,19.580532 L4.65496472,27.7315266 C4.58167843,27.9058673 4.58167843,28.0942459 4.65496472,28.2684734 L8.08356336,36.419468 C8.22942166,36.7662249 8.63885348,37 9.1,37 C9.56114652,37 9.97057834,36.7661117 10.1164366,36.419468 L13.5450353,28.2684734 C13.6183216,28.0942459 13.6183216,27.9058673 13.5450353,27.7315266 Z M9.1,33.466091 L6.8008389,28.0000566 L9.1,22.5340222 L11.3991611,28.0000566 L9.1,33.466091 Z" id="Shape"></path>
            <path d="M18,0 L0,0 L0,52 L18,52 L18,0 Z M2.26389711,12.1967232 L2.26389711,12.142373 L15.8924862,12.142373 L15.8924862,43.556814 L2.26389711,43.556814 L2.26389711,12.1967232 Z M14.6519048,2.09236334 C15.3104326,2.09236334 15.8461626,2.51799401 15.8461626,3.04118597 L15.8461626,4.88301814 L2.21757354,4.88301814 L2.21757354,3.04118597 C2.21757354,2.51799401 2.75330354,2.09236334 3.41183135,2.09236334 L14.6519048,2.09236334 Z M15.8461626,7.86142865 L15.8461626,7.91724174 L2.21757354,7.91724174 L2.21757354,6.01959648 L15.8461626,6.01959648 L15.8461626,7.86142865 Z M15.8461626,10.8956523 L15.8461626,10.9514653 L2.21757354,10.9514653 L2.21757354,9.05382008 L15.8461626,9.05382008 L15.8461626,10.8956523 Z M2.28503028,44.3902439 L15.9136194,44.3902439 L15.9136194,46.2878892 L2.28503028,46.2878892 L2.28503028,44.3902439 Z M14.6982284,50.008534 L3.45815492,50.008534 C2.79962712,50.008534 2.26389711,49.5829033 2.26389711,49.0597113 L2.26389711,47.2178792 L15.8924862,47.2178792 L15.8924862,49.0597113 C15.8924862,49.5829033 15.3567562,50.008534 14.6982284,50.008534 Z" id="Shape"></path>
        </g>
    </g>
</svg>