<?xml version="1.0" encoding="UTF-8"?>
<svg width="18px" height="42px" viewBox="0 0 18 42" version="1.1" xmlns="http://www.w3.org/2000/svg" xmlns:xlink="http://www.w3.org/1999/xlink">
    <!-- Generator: Sketch 52.4 (67378) - http://www.bohemiancoding.com/sketch -->
    <title>stem-4-diamond</title>
    <desc>Created with Sketch.</desc>
    <g id="Page-1" stroke="none" stroke-width="1" fill="none" fill-rule="evenodd">
        <g id="stem-4-diamond" fill="#333333" fill-rule="nonzero">
            <path d="M13.5450353,21.7911874 L10.1164366,15.4515249 C9.97057834,15.181825 9.56114652,15 9.1,15 C8.63885348,15 8.22942166,15.1819131 8.08356336,15.4515249 L4.65496472,21.7911874 C4.58167843,21.9267857 4.58167843,22.0733023 4.65496472,22.2088126 L8.08356336,28.5484751 C8.22942166,28.818175 8.63885348,29 9.1,29 C9.56114652,29 9.97057834,28.8180869 10.1164366,28.5484751 L13.5450353,22.2088126 C13.6183216,22.0733023 13.6183216,21.9267857 13.5450353,21.7911874 Z M9.1,26.2514041 L6.8008389,22.000044 L9.1,17.748684 L11.3991611,22.000044 L9.1,26.2514041 Z" id="Shape"></path>
            <path d="M18,0 L0,0 L0,42 L18,42 L18,0 Z M2.26389711,7.85465975 L2.26389711,7.80730127 L15.8924862,7.80730127 L15.8924862,35.1805036 L2.26389711,35.1805036 L2.26389711,7.85465975 Z M14.6519048,1.68998578 C15.3104326,1.68998578 15.8461626,2.03376439 15.8461626,2.45634252 L15.8461626,3.94397619 L2.21757354,3.94397619 L2.21757354,2.45634252 C2.21757354,2.03376439 2.75330354,1.68998578 3.41183135,1.68998578 L14.6519048,1.68998578 Z M15.8461626,6.80315824 L15.8461626,6.86198177 L2.21757354,6.86198177 L2.21757354,4.86198177 L15.8461626,4.86198177 L15.8461626,6.80315824 Z M2.28503028,35.8536585 L15.9136194,35.8536585 L15.9136194,37.386372 L2.28503028,37.386372 L2.28503028,35.8536585 Z M14.6982284,40.3915082 L3.45815492,40.3915082 C2.79962712,40.3915082 2.26389711,40.0477296 2.26389711,39.6251515 L2.26389711,38.1375178 L15.8924862,38.1375178 L15.8924862,39.6251515 C15.8924862,40.0477296 15.3567562,40.3915082 14.6982284,40.3915082 Z" id="Shape"></path>
        </g>
    </g>
</svg>