<?xml version="1.0" encoding="UTF-8"?>
<svg width="22px" height="67px" viewBox="0 0 22 67" version="1.1" xmlns="http://www.w3.org/2000/svg" xmlns:xlink="http://www.w3.org/1999/xlink">
    <!-- Generator: Sketch 52.4 (67378) - http://www.bohemiancoding.com/sketch -->
    <title>stem-1-diamond</title>
    <desc>Created with Sketch.</desc>
    <g id="Page-1" stroke="none" stroke-width="1" fill="none" fill-rule="evenodd">
        <g id="stem-1-diamond" fill="#333333" fill-rule="nonzero">
            <path d="M16.6328209,35.1569507 L12.4423114,24.7417908 C12.2640402,24.2987126 11.7636235,24 11.2,24 C10.6363765,24 10.1359598,24.2988572 9.95768855,24.7417908 L5.7671791,35.1569507 C5.67760697,35.3797194 5.67760697,35.6204253 5.7671791,35.8430493 L9.95768855,46.2582092 C10.1359598,46.7012874 10.6363765,47 11.2,47 C11.7636235,47 12.2640402,46.7011428 12.4423114,46.2582092 L16.6328209,35.8430493 C16.722393,35.6204253 16.722393,35.3797194 16.6328209,35.1569507 Z M11.2,42.4844496 L8.38991421,35.5000723 L11.2,28.5156951 L14.0100858,35.5000723 L11.2,42.4844496 Z" id="Shape"></path>
            <path d="M22,0 L0,0 L0,67 L22,67 L22,0 Z M2.76698536,15.7150088 L2.76698536,15.6449806 L19.4241498,15.6449806 L19.4241498,56.1212796 L2.76698536,56.1212796 L2.76698536,15.7150088 Z M17.9078837,2.69592969 C18.712751,2.69592969 19.3675321,3.24433844 19.3675321,3.91845116 L19.3675321,6.29158106 L2.71036766,6.29158106 L2.71036766,3.91845116 C2.71036766,3.24433844 3.36514877,2.69592969 4.17001609,2.69592969 L17.9078837,2.69592969 Z M19.3675321,10.1291484 L19.3675321,10.2010615 L2.71036766,10.2010615 L2.71036766,7.75601854 L19.3675321,7.75601854 L19.3675321,10.1291484 Z M19.3675321,14.0386289 L19.3675321,14.1105419 L2.71036766,14.1105419 L2.71036766,11.665499 L19.3675321,11.665499 L19.3675321,14.0386289 Z M2.79281479,57.195122 L19.4499793,57.195122 L19.4499793,59.6401649 L2.79281479,59.6401649 L2.79281479,57.195122 Z M17.9645014,64.4340726 L4.22663379,64.4340726 C3.42176647,64.4340726 2.76698536,63.8856638 2.76698536,63.2115511 L2.76698536,60.8384212 L19.4241498,60.8384212 L19.4241498,63.2115511 C19.4241498,63.8856638 18.7693687,64.4340726 17.9645014,64.4340726 Z" id="Shape"></path>
        </g>
    </g>
</svg>