<?xml version="1.0" encoding="UTF-8"?>
<svg width="18px" height="52px" viewBox="0 0 18 52" version="1.1" xmlns="http://www.w3.org/2000/svg" xmlns:xlink="http://www.w3.org/1999/xlink">
    <!-- Generator: Sketch 52.4 (67378) - http://www.bohemiancoding.com/sketch -->
    <title>stem-3-plain</title>
    <desc>Created with Sketch.</desc>
    <g id="Page-1" stroke="none" stroke-width="1" fill="none" fill-rule="evenodd">
        <g id="stem-3-plain" fill="#333333" fill-rule="nonzero">
            <path d="M18,0 L0,0 L0,52 L18,52 L18,0 Z M2.26389711,9.20191356 L2.26389711,9.142373 L15.8924862,9.142373 L15.8924862,43.556814 L2.26389711,43.556814 L2.26389711,9.20191356 Z M14.6519048,2.09236334 C15.3104326,2.09236334 15.8461626,2.51799401 15.8461626,3.04118597 L15.8461626,4.88301814 L2.21757354,4.88301814 L2.21757354,3.04118597 C2.21757354,2.51799401 2.75330354,2.09236334 3.41183135,2.09236334 L14.6519048,2.09236334 Z M15.8461626,7.86142865 L15.8461626,7.91724174 L2.21757354,7.91724174 L2.21757354,6.01959648 L15.8461626,6.01959648 L15.8461626,7.86142865 Z M2.28503028,44.3902439 L15.9136194,44.3902439 L15.9136194,46.2878892 L2.28503028,46.2878892 L2.28503028,44.3902439 Z M14.6982284,50.008534 L3.45815492,50.008534 C2.79962712,50.008534 2.26389711,49.5829033 2.26389711,49.0597113 L2.26389711,47.2178792 L15.8924862,47.2178792 L15.8924862,49.0597113 C15.8924862,49.5829033 15.3567562,50.008534 14.6982284,50.008534 Z" id="Shape"></path>
        </g>
    </g>
</svg>