<?xml version="1.0" encoding="UTF-8"?>
<svg width="18px" height="42px" viewBox="0 0 18 42" version="1.1" xmlns="http://www.w3.org/2000/svg" xmlns:xlink="http://www.w3.org/1999/xlink">
    <!-- Generator: Sketch 52.4 (67378) - http://www.bohemiancoding.com/sketch -->
    <title>stem-4-plain</title>
    <desc>Created with Sketch.</desc>
    <g id="Page-1" stroke="none" stroke-width="1" fill="none" fill-rule="evenodd">
        <g id="stem-4-plain" fill="#333333" fill-rule="nonzero">
            <path d="M18,0 L0,0 L0,42 L18,42 L18,0 Z M2.26389711,7.85465975 L2.26389711,7.80730127 L15.8924862,7.80730127 L15.8924862,35.1805036 L2.26389711,35.1805036 L2.26389711,7.85465975 Z M14.6519048,1.68998578 C15.3104326,1.68998578 15.8461626,2.03376439 15.8461626,2.45634252 L15.8461626,3.94397619 L2.21757354,3.94397619 L2.21757354,2.45634252 C2.21757354,2.03376439 2.75330354,1.68998578 3.41183135,1.68998578 L14.6519048,1.68998578 Z M15.8461626,6.85168766 L15.8461626,6.91198177 L2.21757354,6.91198177 L2.21757354,4.86198177 L15.8461626,4.86198177 L15.8461626,6.85168766 Z M2.28503028,35.8536585 L15.9136194,35.8536585 L15.9136194,37.386372 L2.28503028,37.386372 L2.28503028,35.8536585 Z M14.6982284,40.3915082 L3.45815492,40.3915082 C2.79962712,40.3915082 2.26389711,40.0477296 2.26389711,39.6251515 L2.26389711,38.1375178 L15.8924862,38.1375178 L15.8924862,39.6251515 C15.8924862,40.0477296 15.3567562,40.3915082 14.6982284,40.3915082 Z" id="Shape"></path>
        </g>
    </g>
</svg>