<?xml version="1.0" encoding="UTF-8"?>
<svg width="18px" height="67px" viewBox="0 0 18 67" version="1.1" xmlns="http://www.w3.org/2000/svg" xmlns:xlink="http://www.w3.org/1999/xlink">
    <!-- Generator: Sketch 52.4 (67378) - http://www.bohemiancoding.com/sketch -->
    <title>stem-2-plain</title>
    <desc>Created with Sketch.</desc>
    <g id="Page-1" stroke="none" stroke-width="1" fill="none" fill-rule="evenodd">
        <g id="stem-2-plain" fill="#333333" fill-rule="nonzero">
            <path d="M18,0 L0,0 L0,67 L18,67 L18,0 Z M2.26389711,15.7150088 L2.26389711,15.6449806 L15.8924862,15.6449806 L15.8924862,56.1212796 L2.26389711,56.1212796 L2.26389711,15.7150088 Z M14.6519048,2.69592969 C15.3104326,2.69592969 15.8461626,3.24433844 15.8461626,3.91845116 L15.8461626,6.29158106 L2.21757354,6.29158106 L2.21757354,3.91845116 C2.21757354,3.24433844 2.75330354,2.69592969 3.41183135,2.69592969 L14.6519048,2.69592969 Z M15.8461626,10.1291484 L15.8461626,10.2010615 L2.21757354,10.2010615 L2.21757354,7.75601854 L15.8461626,7.75601854 L15.8461626,10.1291484 Z M15.8461626,14.0386289 L15.8461626,14.1105419 L2.21757354,14.1105419 L2.21757354,11.665499 L15.8461626,11.665499 L15.8461626,14.0386289 Z M2.28503028,57.195122 L15.9136194,57.195122 L15.9136194,59.6401649 L2.28503028,59.6401649 L2.28503028,57.195122 Z M14.6982284,64.4340726 L3.45815492,64.4340726 C2.79962712,64.4340726 2.26389711,63.8856638 2.26389711,63.2115511 L2.26389711,60.8384212 L15.8924862,60.8384212 L15.8924862,63.2115511 C15.8924862,63.8856638 15.3567562,64.4340726 14.6982284,64.4340726 Z" id="Shape"></path>
        </g>
    </g>
</svg>